<svg xmlns="http://www.w3.org/2000/svg" viewBox="0 0 200 200" role="img" aria-label="ばなな">
  <!-- white die-cut underlay -->
  <g fill="#ffffff" stroke="#ffffff" stroke-width="15" stroke-linejoin="round" stroke-linecap="round">
    <path d="M40,80 C54,158 146,158 160,80 C138,120 62,120 40,80 Z"/>
    <path d="M40,80 Q31,68 38,62 Q46,67 48,79 Z"/>
    <path d="M160,80 Q169,68 162,62 Q154,67 152,79 Z"/>
  </g>
  <!-- color -->
  <path d="M40,80 C54,158 146,158 160,80 C138,120 62,120 40,80 Z" fill="#FFD23D" stroke="#3d2a1c" stroke-width="3.2" stroke-linejoin="round" stroke-linecap="round"/>
  <path d="M40,80 Q31,68 38,62 Q46,67 48,79 Z" fill="#7A5230" stroke="#3d2a1c" stroke-width="3.2" stroke-linejoin="round" stroke-linecap="round"/>
  <path d="M160,80 Q169,68 162,62 Q154,67 152,79 Z" fill="#5A3D22" stroke="#3d2a1c" stroke-width="3" stroke-linejoin="round" stroke-linecap="round"/>
  <path d="M60,101 Q100,132 140,101" fill="none" stroke="#FFE485" stroke-width="4" stroke-linecap="round" opacity="0.9"/>
  <ellipse cx="78" cy="134" rx="9" ry="6" fill="#ff7ba0" opacity="0.8"/>
  <ellipse cx="122" cy="134" rx="9" ry="6" fill="#ff7ba0" opacity="0.8"/>
  <circle cx="85" cy="120" r="8" fill="#2a1e16"/>
  <circle cx="115" cy="120" r="8" fill="#2a1e16"/>
  <circle cx="88" cy="117" r="3" fill="#fff"/>
  <circle cx="118" cy="117" r="3" fill="#fff"/>
  <path d="M92,134 Q100,141 108,134" fill="none" stroke="#3d2a1c" stroke-width="3" stroke-linecap="round"/>
</svg>
