<svg xmlns="http://www.w3.org/2000/svg" viewBox="0 0 200 200" role="img" aria-label="ぶどう">
  <!-- white die-cut underlay -->
  <g fill="#ffffff" stroke="#ffffff" stroke-width="15" stroke-linejoin="round" stroke-linecap="round">
    <rect x="97" y="44" width="6" height="24" rx="3"/>
    <path d="M101,50 Q122,34 138,46 Q124,62 101,58 Q97,54 101,50 Z"/>
    <circle cx="67" cy="72" r="15"/>
    <circle cx="89" cy="72" r="15"/>
    <circle cx="111" cy="72" r="15"/>
    <circle cx="133" cy="72" r="15"/>
    <circle cx="78" cy="93" r="15"/>
    <circle cx="100" cy="93" r="15"/>
    <circle cx="122" cy="93" r="15"/>
    <circle cx="89" cy="113" r="15"/>
    <circle cx="111" cy="113" r="15"/>
    <circle cx="100" cy="132" r="15"/>
  </g>
  <!-- color -->
  <rect x="97" y="44" width="6" height="24" rx="3" fill="#6BA83C" stroke="#3d2a1c" stroke-width="3.2" stroke-linejoin="round" stroke-linecap="round"/>
  <path d="M101,50 Q122,34 138,46 Q124,62 101,58 Q97,54 101,50 Z" fill="#5FBF7A" stroke="#3d2a1c" stroke-width="3.2" stroke-linejoin="round" stroke-linecap="round"/>
  <circle cx="67" cy="72" r="15" fill="#9B5DE5" stroke="#3d2a1c" stroke-width="3.2" stroke-linejoin="round" stroke-linecap="round"/>
  <circle cx="89" cy="72" r="15" fill="#9B5DE5" stroke="#3d2a1c" stroke-width="3.2" stroke-linejoin="round" stroke-linecap="round"/>
  <circle cx="111" cy="72" r="15" fill="#9B5DE5" stroke="#3d2a1c" stroke-width="3.2" stroke-linejoin="round" stroke-linecap="round"/>
  <circle cx="133" cy="72" r="15" fill="#9B5DE5" stroke="#3d2a1c" stroke-width="3.2" stroke-linejoin="round" stroke-linecap="round"/>
  <circle cx="78" cy="93" r="15" fill="#9B5DE5" stroke="#3d2a1c" stroke-width="3.2" stroke-linejoin="round" stroke-linecap="round"/>
  <circle cx="100" cy="93" r="15" fill="#9B5DE5" stroke="#3d2a1c" stroke-width="3.2" stroke-linejoin="round" stroke-linecap="round"/>
  <circle cx="122" cy="93" r="15" fill="#9B5DE5" stroke="#3d2a1c" stroke-width="3.2" stroke-linejoin="round" stroke-linecap="round"/>
  <circle cx="89" cy="113" r="15" fill="#9B5DE5" stroke="#3d2a1c" stroke-width="3.2" stroke-linejoin="round" stroke-linecap="round"/>
  <circle cx="111" cy="113" r="15" fill="#9B5DE5" stroke="#3d2a1c" stroke-width="3.2" stroke-linejoin="round" stroke-linecap="round"/>
  <circle cx="100" cy="132" r="15" fill="#9B5DE5" stroke="#3d2a1c" stroke-width="3.2" stroke-linejoin="round" stroke-linecap="round"/>
  <circle cx="63" cy="67" r="4" fill="#fff" opacity="0.28"/>
  <circle cx="85" cy="67" r="4" fill="#fff" opacity="0.28"/>
  <circle cx="107" cy="67" r="4" fill="#fff" opacity="0.28"/>
  <circle cx="129" cy="67" r="4" fill="#fff" opacity="0.28"/>
  <circle cx="74" cy="88" r="4" fill="#fff" opacity="0.28"/>
  <circle cx="96" cy="88" r="4" fill="#fff" opacity="0.28"/>
  <circle cx="118" cy="88" r="4" fill="#fff" opacity="0.28"/>
  <circle cx="85" cy="108" r="4" fill="#fff" opacity="0.28"/>
  <circle cx="107" cy="108" r="4" fill="#fff" opacity="0.28"/>
  <circle cx="96" cy="127" r="4" fill="#fff" opacity="0.28"/>
  <ellipse cx="93.76" cy="97.28" rx="4.68" ry="3.12" fill="#ff7ba0" opacity="0.8"/>
  <ellipse cx="106.24" cy="97.28" rx="4.68" ry="3.12" fill="#ff7ba0" opacity="0.8"/>
  <circle cx="92.2" cy="90" r="4.16" fill="#2a1e16"/>
  <circle cx="107.8" cy="90" r="4.16" fill="#2a1e16"/>
  <circle cx="93.76" cy="88.44" r="1.56" fill="#fff"/>
  <circle cx="109.36" cy="88.44" r="1.56" fill="#fff"/>
  <path d="M95.84,97.28 Q100,100.4 104.16,97.28" fill="none" stroke="#3d2a1c" stroke-width="2" stroke-linecap="round"/>
</svg>
