<svg xmlns="http://www.w3.org/2000/svg" viewBox="0 0 200 200" role="img" aria-label="ぶた">
  <!-- white die-cut underlay -->
  <g fill="#ffffff" stroke="#ffffff" stroke-width="15" stroke-linejoin="round" stroke-linecap="round">
    <path d="M66,74 L52,42 Q56,36 72,52 Q78,64 78,76 Z"/>
    <path d="M134,74 L148,42 Q144,36 128,52 Q122,64 122,76 Z"/>
    <circle cx="100" cy="106" r="46"/>
  </g>
  <!-- ears (behind head) -->
  <path d="M66,74 L52,42 Q56,36 72,52 Q78,64 78,76 Z" fill="#F58BAB" stroke="#3d2a1c" stroke-width="3.2" stroke-linejoin="round" stroke-linecap="round"/>
  <path d="M134,74 L148,42 Q144,36 128,52 Q122,64 122,76 Z" fill="#F58BAB" stroke="#3d2a1c" stroke-width="3.2" stroke-linejoin="round" stroke-linecap="round"/>
  <path d="M69,70 L59,46 Q62,43 72,55 Q75,63 75,72 Z" fill="#FBB6CC"/>
  <path d="M131,70 L141,46 Q138,43 128,55 Q125,63 125,72 Z" fill="#FBB6CC"/>
  <!-- head -->
  <circle cx="100" cy="106" r="46" fill="#FCA9C0" stroke="#3d2a1c" stroke-width="3.2"/>
  <!-- cheeks -->
  <ellipse cx="66" cy="112" rx="9" ry="6" fill="#F06A94" opacity="0.4"/>
  <ellipse cx="134" cy="112" rx="9" ry="6" fill="#F06A94" opacity="0.4"/>
  <!-- eyes -->
  <circle cx="82" cy="94" r="7.5" fill="#2a1e16"/>
  <circle cx="118" cy="94" r="7.5" fill="#2a1e16"/>
  <circle cx="85" cy="91" r="2.7" fill="#fff"/>
  <circle cx="121" cy="91" r="2.7" fill="#fff"/>
  <!-- snout -->
  <ellipse cx="100" cy="118" rx="24" ry="18" fill="#F58BAB" stroke="#3d2a1c" stroke-width="3"/>
  <ellipse cx="91" cy="118" rx="3.5" ry="5" fill="#B65A76"/>
  <ellipse cx="109" cy="118" rx="3.5" ry="5" fill="#B65A76"/>
  <!-- mouth -->
  <path d="M92,142 Q100,148 108,142" fill="none" stroke="#3d2a1c" stroke-width="2.5" stroke-linecap="round"/>
</svg>
