<svg xmlns="http://www.w3.org/2000/svg" viewBox="0 0 200 200" role="img" aria-label="じてんしゃ">
  <!-- white die-cut underlay -->
  <g fill="none" stroke="#ffffff" stroke-width="15" stroke-linejoin="round" stroke-linecap="round">
    <circle cx="52" cy="134" r="32"/>
    <circle cx="148" cy="134" r="32"/>
    <path d="M82,76 L100,138 M134,84 L100,138 M82,76 L134,84 M100,138 L52,134 M82,76 L52,134 M134,84 L148,134 M134,84 L143,65"/>
  </g>
  <!-- frame -->
  <path d="M82,76 L100,138 M134,84 L100,138 M82,76 L134,84 M100,138 L52,134 M82,76 L52,134 M134,84 L148,134" fill="none" stroke="#2f7fd6" stroke-width="6.5" stroke-linejoin="round" stroke-linecap="round"/>
  <!-- rear wheel -->
  <circle cx="52" cy="134" r="32" fill="none" stroke="#33302f" stroke-width="7"/>
  <circle cx="52" cy="134" r="27" fill="none" stroke="#d5d9de" stroke-width="2.5"/>
  <g stroke="#9aa0a6" stroke-width="1.8" stroke-linecap="round">
    <path d="M52,134 L52,105 M52,134 L52,163 M52,134 L23,134 M52,134 L81,134 M52,134 L31,113 M52,134 L73,113 M52,134 L31,155 M52,134 L73,155"/>
  </g>
  <circle cx="52" cy="134" r="5.5" fill="#5b5560" stroke="#3d2a1c" stroke-width="2"/>
  <!-- front wheel -->
  <circle cx="148" cy="134" r="32" fill="none" stroke="#33302f" stroke-width="7"/>
  <circle cx="148" cy="134" r="27" fill="none" stroke="#d5d9de" stroke-width="2.5"/>
  <g stroke="#9aa0a6" stroke-width="1.8" stroke-linecap="round">
    <path d="M148,134 L148,105 M148,134 L148,163 M148,134 L119,134 M148,134 L177,134 M148,134 L127,113 M148,134 L169,113 M148,134 L127,155 M148,134 L169,155"/>
  </g>
  <circle cx="148" cy="134" r="5.5" fill="#5b5560" stroke="#3d2a1c" stroke-width="2"/>
  <!-- handlebar -->
  <path d="M134,84 L143,65 M136,65 L153,69" fill="none" stroke="#3a3f45" stroke-width="5" stroke-linejoin="round" stroke-linecap="round"/>
  <!-- saddle -->
  <path d="M69,74 Q82,68 93,74 Q82,79 69,74 Z" fill="#3a3f45" stroke="#3d2a1c" stroke-width="2.2"/>
  <!-- pedal crank -->
  <circle cx="100" cy="138" r="5.5" fill="#5b5560" stroke="#3d2a1c" stroke-width="2"/>
  <path d="M100,138 L108,151 L116,151" fill="none" stroke="#3a3f45" stroke-width="4" stroke-linejoin="round" stroke-linecap="round"/>
</svg>
