<svg xmlns="http://www.w3.org/2000/svg" viewBox="0 0 200 200" role="img" aria-label="きりん">
  <!-- white die-cut underlay -->
  <g fill="#ffffff" stroke="#ffffff" stroke-width="15" stroke-linejoin="round" stroke-linecap="round">
    <path d="M72,112 L66,182 L134,182 L128,112 Z"/>
    <ellipse cx="62" cy="68" rx="16" ry="9" transform="rotate(-22 62 68)"/>
    <ellipse cx="138" cy="68" rx="16" ry="9" transform="rotate(22 138 68)"/>
    <rect x="81.5" y="30" width="7" height="26" rx="3.5"/>
    <rect x="111.5" y="30" width="7" height="26" rx="3.5"/>
    <circle cx="85" cy="27" r="8"/>
    <circle cx="115" cy="27" r="8"/>
    <ellipse cx="100" cy="86" rx="34" ry="40"/>
  </g>
  <!-- neck -->
  <path d="M72,112 L66,182 L134,182 L128,112 Z" fill="#F5C24E" stroke="#3d2a1c" stroke-width="3.2" stroke-linejoin="round"/>
  <!-- ears -->
  <ellipse cx="62" cy="68" rx="16" ry="9" transform="rotate(-22 62 68)" fill="#F5C24E" stroke="#3d2a1c" stroke-width="3"/>
  <ellipse cx="138" cy="68" rx="16" ry="9" transform="rotate(22 138 68)" fill="#F5C24E" stroke="#3d2a1c" stroke-width="3"/>
  <ellipse cx="60" cy="68" rx="8" ry="4.5" transform="rotate(-22 60 68)" fill="#D99B3E"/>
  <ellipse cx="140" cy="68" rx="8" ry="4.5" transform="rotate(22 140 68)" fill="#D99B3E"/>
  <!-- ossicones -->
  <rect x="81.5" y="30" width="7" height="26" rx="3.5" fill="#E0A94A" stroke="#3d2a1c" stroke-width="2.6"/>
  <rect x="111.5" y="30" width="7" height="26" rx="3.5" fill="#E0A94A" stroke="#3d2a1c" stroke-width="2.6"/>
  <circle cx="85" cy="27" r="8" fill="#7A5A34" stroke="#3d2a1c" stroke-width="2.6"/>
  <circle cx="115" cy="27" r="8" fill="#7A5A34" stroke="#3d2a1c" stroke-width="2.6"/>
  <!-- head -->
  <ellipse cx="100" cy="86" rx="34" ry="40" fill="#F5C24E" stroke="#3d2a1c" stroke-width="3.2"/>
  <!-- spots -->
  <g fill="#C8873A">
    <ellipse cx="82" cy="72" rx="8" ry="7"/>
    <ellipse cx="117" cy="74" rx="8" ry="7"/>
    <ellipse cx="79" cy="130" rx="9" ry="8"/>
    <ellipse cx="114" cy="132" rx="9" ry="8"/>
    <ellipse cx="96" cy="155" rx="9" ry="8"/>
    <ellipse cx="122" cy="160" rx="8" ry="7"/>
    <ellipse cx="80" cy="166" rx="8" ry="7"/>
  </g>
  <!-- muzzle -->
  <ellipse cx="100" cy="106" rx="22" ry="15" fill="#FBE1A4" stroke="#3d2a1c" stroke-width="2.4"/>
  <!-- nostrils -->
  <ellipse cx="92" cy="104" rx="2.5" ry="3.5" fill="#B5772F"/>
  <ellipse cx="108" cy="104" rx="2.5" ry="3.5" fill="#B5772F"/>
  <!-- mouth -->
  <path d="M90,111 Q100,119 110,111" fill="none" stroke="#3d2a1c" stroke-width="2.4" stroke-linecap="round"/>
  <!-- cheeks -->
  <ellipse cx="74" cy="98" rx="7.5" ry="5" fill="#ff7ba0" opacity="0.65"/>
  <ellipse cx="126" cy="98" rx="7.5" ry="5" fill="#ff7ba0" opacity="0.65"/>
  <!-- eyes -->
  <circle cx="84" cy="84" r="7.5" fill="#2a1e16"/>
  <circle cx="116" cy="84" r="7.5" fill="#2a1e16"/>
  <circle cx="87" cy="81" r="2.7" fill="#fff"/>
  <circle cx="119" cy="81" r="2.7" fill="#fff"/>
</svg>
