<svg xmlns="http://www.w3.org/2000/svg" viewBox="0 0 200 200" role="img" aria-label="きゅうり">
  <defs>
    <clipPath id="cuke"><path d="M104,40 C124,44 128,72 125,106 C122,140 118,166 100,170 C82,166 78,140 75,106 C72,72 84,44 104,40 Z"/></clipPath>
  </defs>
  <!-- white die-cut underlay -->
  <g fill="#ffffff" stroke="#ffffff" stroke-width="15" stroke-linejoin="round" stroke-linecap="round">
    <path d="M104,40 C124,44 128,72 125,106 C122,140 118,166 100,170 C82,166 78,140 75,106 C72,72 84,44 104,40 Z"/>
  </g>
  <!-- body -->
  <path fill="#6fbf4a" stroke="#3d2a1c" stroke-width="3.2" stroke-linejoin="round"
        d="M104,40 C124,44 128,72 125,106 C122,140 118,166 100,170 C82,166 78,140 75,106 C72,72 84,44 104,40 Z"/>
  <!-- pale ends -->
  <g clip-path="url(#cuke)">
    <ellipse fill="#a6d773" cx="104" cy="44" rx="16" ry="10"/>
    <ellipse fill="#a6d773" cx="100" cy="168" rx="14" ry="9"/>
    <!-- side shading -->
    <path fill="#4f9c34" opacity="0.5" d="M116,50 C126,70 126,100 122,132 C119,152 114,164 104,170 C114,160 116,140 116,112 C116,82 118,62 116,50 Z"/>
    <!-- bumps -->
    <g fill="#4f9c34" opacity="0.8">
      <ellipse cx="90" cy="70" rx="3.2" ry="4.2"/>
      <ellipse cx="108" cy="82" rx="3.2" ry="4.2"/>
      <ellipse cx="94" cy="132" rx="3.2" ry="4.2"/>
      <ellipse cx="112" cy="120" rx="3.2" ry="4.2"/>
      <ellipse cx="90" cy="150" rx="3" ry="4"/>
    </g>
  </g>
  <!-- glossy highlight -->
  <path fill="#ffffff" opacity="0.32" d="M88,58 C80,74 78,96 80,120 C84,104 86,84 94,66 Q92,60 88,58 Z"/>
  <!-- top nub -->
  <path fill="#5aa83a" stroke="#3d2a1c" stroke-width="2.6" d="M100,42 Q100,32 104,30 Q108,34 106,40 Z"/>
  <!-- face -->
  <g>
    <ellipse fill="#ff7ba0" opacity="0.7" cx="86" cy="108" rx="6.5" ry="4.5"/>
    <ellipse fill="#ff7ba0" opacity="0.7" cx="114" cy="108" rx="6.5" ry="4.5"/>
    <circle fill="#2a1e16" cx="92" cy="98" r="6"/>
    <circle fill="#2a1e16" cx="108" cy="98" r="6"/>
    <circle fill="#ffffff" cx="94" cy="95.5" r="2.2"/>
    <circle fill="#ffffff" cx="110" cy="95.5" r="2.2"/>
    <path fill="none" stroke="#3d2a1c" stroke-width="2.8" stroke-linecap="round" d="M95,107 Q100,112 105,107"/>
  </g>
</svg>
