<svg xmlns="http://www.w3.org/2000/svg" viewBox="0 0 200 200" role="img" aria-label="ぞう">
  <!-- white die-cut underlay -->
  <g fill="#ffffff" stroke="#ffffff" stroke-width="15" stroke-linejoin="round" stroke-linecap="round">
    <circle cx="54" cy="98" r="32"/>
    <circle cx="146" cy="98" r="32"/>
    <circle cx="100" cy="96" r="42"/>
    <path d="M87,105 Q83,145 88,164 Q92,176 100,176 Q108,176 112,164 Q117,145 113,105 Z"/>
  </g>
  <!-- ears (behind head) -->
  <circle cx="54" cy="98" r="32" fill="#AEB4BF" stroke="#3d2a1c" stroke-width="3.2"/>
  <circle cx="146" cy="98" r="32" fill="#AEB4BF" stroke="#3d2a1c" stroke-width="3.2"/>
  <ellipse cx="57" cy="100" rx="18" ry="22" fill="#C99FA8"/>
  <ellipse cx="143" cy="100" rx="18" ry="22" fill="#C99FA8"/>
  <!-- head -->
  <circle cx="100" cy="96" r="42" fill="#AEB4BF" stroke="#3d2a1c" stroke-width="3.2"/>
  <!-- trunk -->
  <path d="M87,105 Q83,145 88,164 Q92,176 100,176 Q108,176 112,164 Q117,145 113,105 Z" fill="#AEB4BF" stroke="#3d2a1c" stroke-width="3.2" stroke-linejoin="round"/>
  <g fill="none" stroke="#7C8390" stroke-width="2.4" stroke-linecap="round" opacity="0.55">
    <path d="M89,122 Q100,127 111,122"/>
    <path d="M88,138 Q100,143 112,138"/>
    <path d="M89,152 Q100,157 111,152"/>
  </g>
  <!-- cheeks -->
  <ellipse cx="70" cy="106" rx="8" ry="5.5" fill="#ff7ba0" opacity="0.6"/>
  <ellipse cx="130" cy="106" rx="8" ry="5.5" fill="#ff7ba0" opacity="0.6"/>
  <!-- eyes -->
  <circle cx="82" cy="92" r="8" fill="#2a1e16"/>
  <circle cx="118" cy="92" r="8" fill="#2a1e16"/>
  <circle cx="85" cy="89" r="2.8" fill="#fff"/>
  <circle cx="121" cy="89" r="2.8" fill="#fff"/>
</svg>
